<?xml version="1.0" encoding="UTF-8"?>
<svg id="Layer_2" data-name="Layer 2" xmlns="http://www.w3.org/2000/svg" viewBox="0 0 640.32 732.87">
  <defs>
    <style>
      .cls-1 {
        fill: #0d0e0e;
      }

      .cls-1, .cls-2 {
        stroke-width: 0px;
      }
    </style>
  </defs>
  <g id="Layer_1-2" data-name="Layer 1">
    <path class="cls-1" d="m91.56,546.09c14.01,10.02,23.31,23.11,25.8,40.41.68,4.74.51,9.61.73,14.42-2.83,22.19-13.05,39.71-33.94,48.89-22.55,9.91-44.37,6.89-63.04-9.25-18.77-16.24-25.5-37.39-18.3-61.36,7.12-23.69,24.08-37.18,48.44-41.35,14.51-2.49,27.61,1.86,40.3,8.25Z"/>
    <path class="cls-1" d="m640.31,595.79c.63,32.34-24.82,59.53-56.35,60.19-33.98.71-60.6-24.33-61.33-57.69-.73-33.4,25.37-60.54,58.83-61.16,32.39-.6,58.2,25.13,58.86,58.66Z"/>
    <path class="cls-1" d="m324.87,0c21.8,2.39,38.27,12.98,49.24,32.02,4.59,2.56,3.38,7.49,4.66,11.41.1,1.61-.1,3.26.74,4.75,1.95,1.08,1.25,2.7,1.02,4.35-.27,1.94-.52,3.93.27,5.85v.43c-1.55,2.97,1,6.34-.9,9.27-3.37,15.91-11.33,28.96-24.23,38.94-17.25,11.2-35.59,14.58-55.22,7.25-26.03-9.73-41.68-37.16-37.26-64.9,4.37-27.41,27.74-48.05,55.7-49.18,2-.08,4-.12,5.99-.17Z"/>
    <path class="cls-2" d="m378.77,43.42c-1.55-3.8-3.11-7.6-4.66-11.41,3.84-.04,4.35,2.74,4.6,5.59.17,1.93.05,3.88.06,5.82Z"/>
    <path class="cls-2" d="m380.79,58.37c-.43-3.4-.86-6.8-1.29-10.19,4.56,2.88.3,6.87,1.29,10.19Z"/>
    <path class="cls-2" d="m379.89,68.07c.04-3.11.08-6.23.9-9.27-.67,3.05,2.38,6.47-.9,9.27Z"/>
    <g>
      <path class="cls-1" d="m425.14,402.51c-10.82-.11-21.64-.03-32.46-.03-18.14,0-36.29.17-54.43-.09-7.1-.1-13.08,1.48-17.86,7-.89,1.03-1.85,2.64-3.46,2.57.09,1.4-1.51,2.37-2.45,3.36-9.91,10.31-20.15,20.29-30.24,30.42-8.8,8.84-17.65,17.62-26.44,26.46-5.43,5.47-5.32,7.4,1.09,11.51,22.43,14.38,46.72,21.07,73.52,17.98,10.15-1.17,19.96-3.43,29.56-6.77,1.12-.39,2.26-.96,3.23-.73.5-1.43,2.35-1.59,3.58-2.19,27.88-13.53,47.72-34.57,59.28-63.35,2.12-5.26,3.6-10.73,4.8-16.27,1.69-7.82.16-9.79-7.71-9.87Z"/>
      <path class="cls-1" d="m612.84,506.94c-1.22-5.68-2.35-11.39-3.69-17.05-8.27-35.06-23.8-66.93-43.17-97.04-2.6-4.04-2.96-7.02-.22-11.16,6.99-10.53,13.23-21.52,19.09-32.73,10.84-20.7,19.29-42.32,25.16-64.95,3.53-16.14,5.72-32.41,4.76-48.99-1.8-31.07-13.56-57.25-37.82-77.37-12.55-10.4-27.32-16.29-42.48-21.45-1.32-.12-2.69-.07-3.97-.38-26.8-6.68-53.77-5.68-80.74-1.5-4.67.72-7.21-.16-9.59-4.38-9.11-16.13-20.07-30.97-32.42-44.77q-6.1-6.82-9.85,1.09c-.64,3.67-2.3,6.97-4.03,10.17-1.71,3.18-1.11,5.37,1.27,7.95,7.14,7.72,13.19,16.3,18.83,25.17,6.48,10.17,6.5,10.37-4.96,13.31-11.95,3.07-23.29,7.99-35.16,11.25-15.3,6.94-31.09,12.82-45.99,20.63-4.1,2.15-7.52,2.19-11.67.09-28.02-14.16-57.13-25.58-87.51-33.6-4.28-1.13-4.5-2.75-2.31-6.18,6.9-10.83,13.92-21.55,22.75-30.94,2.17-2.31,2.66-4.2.85-6.96-2.76-4.2-4.67-8.87-5.79-13.75-.92-4.04-2.5-4.28-5.17-1.5-1.04,1.08-2.11,2.13-3.13,3.22-12.75,13.75-23.48,28.97-32.52,45.36-2.03,3.67-4.24,4.66-8.37,4.02-35.77-5.5-71.04-4.82-105.08,9.38-.58.33-1.14.69-1.73.99-39.24,19.2-57.72,51.49-59.45,94.31-1.13,28.14,5.63,54.79,15.69,80.76,8.69,22.43,19.93,43.55,33.03,63.7,1.57,2.41,3,4.59.97,7.69-12.63,19.24-23.28,39.55-32.54,60.61-.61,1.72-1.19,3.46-1.85,5.16-7.19,18.56-12.21,37.67-14.72,57.44-.44,3.46-.04,5.36,4.07,3.62,4.33-1.83,8.99-2.68,13.6-3.06,4.59-.38,6.24-2.58,6.75-6.87.94-7.93,2.52-15.75,5.33-23.27,2.94-1.52,3.93-4.33,4.9-7.21,6.68-20,16.17-38.67,27.08-56.66,3.85-6.34,5.27-6.36,9.88-.31,12.42,16.3,25.51,32.02,40.14,46.41,3.74,3.67,5.69,7.92,6.41,13.13,6.12,44.56,17.01,87.87,34.38,129.46,2.56,6.12,1.23,7.8-5.5,8.65-10.79,1.36-21.61.88-32.42.94-2.89.02-5.34.29-5.94,3.74-1.07,5.66-3.69,10.7-6.61,15.54-2.14,3.55-2.1,5.31,2.61,5.6,6.97.43,13.93,1.18,20.89,1.79,12.81-.37,25.67-.65,38.21-3.37,5.82-1.26,8.58.35,11.37,5.41,13.16,23.8,29.45,45.14,51.46,61.55,28.99,21.61,60.69,29.38,95.93,18.05,13.97-4.49,26.11-12.31,37.85-20.85,4.51-4.17,9.08-8.27,13.51-12.52,15.12-14.51,26.82-31.6,37.43-49.53,1.24-2.1,2.17-4.55,5.46-4.2,10.56,1.11,21.13,2.12,31.7,3.16,2.16-.02,4.33-.1,6.49-.05,8.17.19,16.33.15,24.44-.99,6.06-.85,6.27-1.44,3.54-6.7-1.92-3.69-3.95-7.39-5.23-11.31-1.3-4-3.38-4.86-7.42-4.41-13.46,1.5-26.92.8-40.35-.93-4.47-.57-5.15-2.18-3.38-6.19,19.27-43.77,30.77-89.66,37.11-136.95.37-2.79.73-5.53,2.87-7.8,17.25-18.32,33.81-37.23,49.09-57.25,2.16-2.83,3.59-2.3,5.03.47.31.59.7,1.13,1.05,1.7,17.85,29.41,31.69,60.45,37.85,94.53.72,4,2.63,5.78,6.57,5.92,3.68.13,7.22,1.15,10.71,2.32q7.62,2.57,6.72-5.67c-.12-1.15-.05-2.33-.07-3.49ZM351.83,188.63c23.5-10.82,47.64-19.82,72.81-25.97,3.5-.86,5.56-.1,7.18,3.24,16.66,34.29,26.41,70.72,33.55,107.97.11.58-.12,1.24-.19,1.9-2.59.14-3.69-1.8-5.09-3.06-33.19-30.12-69.26-56.24-108.32-78.23-1.4-.79-3.64-1.22-3.67-3.02-.03-1.92,2.29-2.16,3.72-2.83Zm-143.75-21.11c1.97-4.43,4.16-5.75,9.13-4.57,25.38,6.02,49.66,15.02,73.24,26.04,1.16.54,3.01.77,3.02,2.24.02,1.98-2.17,2.29-3.53,3.06-35.92,20.3-69.23,44.26-100.52,71.1-4.1,3.52-7.59,7.8-12.28,10.6-.41-.25-.83-.49-1.24-.74,2.01-9.39,3.89-18.82,6.05-28.18,6.32-27.3,14.72-53.91,26.13-79.55Zm-64.63,264.12c-1.51.6-2.15-1.18-2.98-2.11-10.87-12.18-20.4-25.43-30.37-38.33-1.74-2.26-1.53-4,.09-6.21,9.42-12.91,19.21-25.52,29.87-37.44.83-.92,1.57-2.63,3.09-1.98,1.46.63.84,2.35.84,3.61.03,13.14.02,26.28.02,39.42.1,0,.2,0,.3,0,0,13.14,0,26.28-.01,39.42,0,1.27.62,3.03-.84,3.61Zm3.55-132.38c.3,2.89-.91,5.05-2.92,7.07-17.25,17.39-33.17,35.93-47.68,55.67-2.37,3.22-3.89,4.01-6.27-.06-17.95-30.66-32.42-62.66-37.63-98.15-3.5-23.86-2.44-47.27,10.33-68.66,8.7-14.56,20.92-25.26,37.08-31.11h0c17.35-8.04,35.89-9.67,54.61-9.62,9.13.02,18.25,1.23,27.37,1.98,2.86.24,4.82,1.06,3.19,4.73-19.33,43.53-30.9,89.21-37.51,136.25-.09.65-.38,1.27-.58,1.9Zm61.88,310.45c-15.9-34.6-25.35-71.12-32.63-108.31-.12-.6.08-1.26.13-1.95,2.36-.06,3.35,1.72,4.63,2.88,33.48,30.28,69.73,56.72,109.06,78.91,1.34.76,3.66,1.08,3.39,3.11-.2,1.52-2.25,1.78-3.58,2.4-23.63,10.96-48.01,19.8-73.38,25.86-3.36.8-5.8,1.08-7.63-2.91Zm207.33,30.94c-11.46,18.05-24.14,35.07-41.38,48.15-27.26,22.54-59.12,28.57-91.37,11.26-26.07-14-43.77-36.35-58.96-61-1.69-2.74-.47-3.82,2.12-4.56,6.56-1.87,13.11-3.77,19.62-5.81,23.23-7.28,45.5-16.95,67.57-27.11h0c4.45-3.6,8.66-3.06,13.72-.54,27.59,13.76,56.13,25.16,85.99,33.06,5.49,1.45,5.67,1.85,2.69,6.55Zm46.66-129.4c-6.29,33.84-15.71,66.68-30.38,97.94-2.13,4.54-4.48,5.55-9.19,4.39-25.3-6.27-49.57-15.34-73.25-26.12-1.17-.53-2.91-.82-3.02-2.29-.14-1.82,1.81-2.21,3.05-2.89,30.84-17.03,59.36-37.47,87.04-59.13,7.87-6.16,15.4-12.71,22.63-19.6,1.27-1.21,2.33-2.76,4.99-3.54-.69,4.15-1.23,7.7-1.89,11.23Zm9.77-54.6c-.34,2.66-.85,5.16-2.91,7.23-24.16,24.28-50.94,45.39-78.87,65.1-21.21,15.66-43.57,29.48-66.78,41.96-3.24,1.74-5.71.38-8.39-1.05-26.11-13.86-50.68-30.11-74.46-47.59-23.66-17.38-46-36.34-67.29-56.55-2.99-2.83-4.52-5.86-4.9-9.91-3.16-33.7-5.29-67.43-3.01-101.27.77-11.46,2.09-22.88,3.2-34.32.23-2.37,1.09-4.44,2.85-6.21,21.54-21.69,45.27-40.78,69.79-58.94.26-.19.61-.25.92-.37,0,0,0,0,0,0,21.67-16.72,44.83-31.09,68.52-44.76,7.17-4.13,12.54-3.8,19.6-.11,38.78,20.25,73.92,45.61,106.65,74.46,10.24,9.03,20.36,18.21,30.63,27.2,2.54,2.22,3.95,4.69,4.3,8.07,4.68,45.68,5.99,91.36.16,137.06Zm59.23-65.91c-10.87,14.06-21.8,28.07-33.84,41.46.68-29.23.64-58.27-.55-87.74,2.44.44,3.32,2.13,4.42,3.38,10.48,11.85,19.71,24.69,29.44,37.14,1.45,1.86,2.26,3.52.53,5.76Zm17.48-27.74c-1.86,3.06-3.21,4.42-5.91.57-13.92-19.83-30.15-37.72-47.06-55-2.71-2.77-4.08-5.79-4.6-9.62-6.32-46.95-17.66-92.56-36.67-136.09-2.37-5.42-2.02-6.12,4.08-6.68,9.12-.84,18.26-1.44,25.46-1.99,20.02.49,37.9,2.13,54.83,9.11,29.17,12.02,45.15,34.13,49.32,65.06,3.49,25.93-1.81,50.73-10.32,75.03-7.35,21.01-17.6,40.62-29.14,59.61Z"/>
      <path class="cls-1" d="m296.31,392.39c1.76-1.77,3.48-3.59,5.41-5.18.77-.63,1.56-1.43,2.45-1.29,3.44-6.76,3.27-14.08,3.25-21.45-.1-25.97,0-51.95-.05-77.92-.02-10.61-2.35-12.46-12.62-9.88-10.87,2.74-21.2,6.89-30.99,12.38-1.43.8-2.78,1.98-4.57,1.87-.35,1.79-2.4,2.56-3.8,3.54-13.12,9.24-23.85,20.62-32.07,34.45-9.09,15.29-14.4,31.69-16,49.42-2.23,24.69,3.02,47.59,15.72,68.81,6.19,10.34,8.02,10.54,16.44,2.12,18.95-18.96,37.94-37.87,56.85-56.87Z"/>
    </g>
    <path class="cls-1" d="m305.47,386.85c-22.28,22.22-44.56,44.44-66.83,66.67q-8.69,8.67-15.75-1.65c-25.28-36.93-24.91-89.95.6-128.33,9.39-14.13,21.39-25.4,35.38-34.74,13.56-8.05,27.9-14.03,43.6-16.35,6.27-.93,7.03-.33,7.03,5.98.03,32.92-.05,65.84.1,98.76.02,4.05-1.47,7-4.14,9.68Z"/>
    <path class="cls-1" d="m366.84,495.94c-16.81,6.5-34.16,9.96-52.23,9.03-23.47-1.21-44.4-9.33-63.27-23.19-3.71-2.73-2.39-4.51.1-6.99,19.95-19.83,39.82-39.72,59.7-59.61,1.64-1.64,3.17-3.41,4.74-5.11.4-.3.91-.52,1.18-.91,5.9-8.47,14.16-9.71,23.95-9.53,29.65.56,59.31.2,88.96.21,7.53,0,8.05.52,6.57,8.04-7.7,39.04-29.47,67.45-64.85,85.53-1.63.83-3.24,1.7-4.86,2.55Z"/>
    <path class="cls-1" d="m384.88,376.83c-15.31,0-30.63-.14-45.94.08-4.83.07-6.87-1.33-6.84-6.48.16-30.79.06-61.58.1-92.37,0-5.84.83-6.45,6.43-5.63,49.31,7.21,90.28,47.75,98.03,96.97,1.09,6.94.7,7.42-6.33,7.43-15.15.02-30.29,0-45.44,0Z"/>
  </g>
</svg>