<?xml version="1.0" encoding="utf-8"?>
<!-- Generator: Adobe Illustrator 27.9.0, SVG Export Plug-In . SVG Version: 6.00 Build 0)  -->
<svg version="1.1"
	 id="svg121614" xmlns:dc="http://purl.org/dc/elements/1.1/" xmlns:svg="http://www.w3.org/2000/svg" xmlns:rdf="http://www.w3.org/1999/02/22-rdf-syntax-ns#" xmlns:cc="http://creativecommons.org/ns#"
	 xmlns="http://www.w3.org/2000/svg" xmlns:xlink="http://www.w3.org/1999/xlink" x="0px" y="0px" viewBox="0 0 696.4 149"
	 style="enable-background:new 0 0 696.4 149;" xml:space="preserve">
<style type="text/css">
	.st0{clip-path:url(#SVGID_00000147184341824773125780000004255886254342082203_);}
	.st1{fill:#F9F9F9;}
</style>
<g id="logo-group">
	<g id="logo-center" transform="translate(177.55032625000007 0)">
		<g>
			<defs>
				<polygon id="SVGID_1_" points="-165.6,-309 -164.6,-309 -165.6,-308 				"/>
			</defs>
			<defs>
				<polygon id="SVGID_00000078744318423581697400000012586088539987809675_" points="-167.6,-311 -168.6,-311 -167.6,-312 				"/>
			</defs>
			<clipPath id="SVGID_00000132049390793081044250000012384976906105507744_">
				<use xlink:href="#SVGID_1_"  style="overflow:visible;"/>
			</clipPath>
			
				<clipPath id="SVGID_00000056407283918946897250000011694699396640990627_" style="clip-path:url(#SVGID_00000132049390793081044250000012384976906105507744_);">
				<use xlink:href="#SVGID_00000078744318423581697400000012586088539987809675_"  style="overflow:visible;"/>
			</clipPath>
		</g>
		<g id="slogan" transform="translate(0 0)">
		</g>
		<g id="title" transform="translate(0 0)">
			<path id="path121623" class="st1" d="M32.9,46.1h-22c0,0,1.2,3.4,1.2,8.8v38.4c0,5.4-1.2,8.8-1.2,8.8h20.4
				c12.2,0,28.8-8.8,28.8-30.1C60.1,57.4,51.7,46.1,32.9,46.1z M16.7,98.7V49.6c0,0,7.5-1.3,12.1-1.3c18.9,0,26.5,9.8,26.5,24.9
				c0,12.5-6.9,26.8-27.8,26.8C20.9,99.9,16.7,98.7,16.7,98.7z M26.1,74c0,0,3.4,1.1,5.8,3.3c2.3,2.2,3.6,5.3,3.6,5.3
				s1.3-3.1,3.7-5.3c2.3-2.2,5.8-3.4,5.8-3.4s-3.4-1.1-5.8-3.3c-2.4-2.2-3.7-5.3-3.7-5.3s-1.3,3.1-3.6,5.3
				C29.5,72.8,26.1,74,26.1,74z"/>
			<path id="path121625" class="st1" d="M97,45.7c-17.3,0-28.2,12.6-28.2,28.3s10.4,28.4,28.2,28.4c15.7,0,28.2-12.7,28.2-28.4
				S115.7,45.7,97,45.7L97,45.7z M73.5,74c0-15.5,7-25.7,23.4-25.7c14.7,0,23.4,11.5,23.4,25.7S112.6,99.9,97,99.9
				C82.6,99.9,73.5,88.3,73.5,74z"/>
			<path id="path121627" class="st1" d="M167.6,99.7c-18.5,0-29.1-11.4-29.1-25.7c0-15.8,8.2-25.7,26.3-25.7c3,0,9.8,0.2,17.9,3.8
				l1.2-3.6c-10.3-2.8-14.6-2.9-20.4-2.9c-18.4,0-29.8,12.8-29.8,28.5s9.7,28.4,32.9,28.4c11.5,0,20.8-4.6,20.8-4.6l-1.4-3.3
				C182.3,97.5,173.6,99.7,167.6,99.7L167.6,99.7z"/>
			<path id="path121629" class="st1" d="M240.9,46.1h-5.8c0,0,1.3,3.4,1.3,8.8v23.8c0,7.9-2.3,20.5-18.5,20.5
				c-16.1,0-19.6-11.8-19.6-20.5V54.9c0-5.5,1.3-8.8,1.3-8.8h-7c0,0,1.2,3.4,1.2,8.8v18.5c0,7.4-1.3,28.9,22.5,28.9
				c19.9,0,23.4-13.2,23.4-28.9V54.9C239.6,49.4,240.9,46.1,240.9,46.1L240.9,46.1z"/>
			<path id="path121631" class="st1" d="M313.1,93.3l-7-45.3l-0.4-1.8h-2.1l-1.8,4l-20,44.9l-21.3-45.5l-1.6-3.4h-3.5
				c0,0,2.2,2.2,1,8.8l-6.6,38.4c-1,5.4-2.9,8.8-2.9,8.8h5.8c0,0-0.7-3.3,0.2-8.8l6.4-36.6l20.3,43.3l1,2.1h1.3l1.6-3.4l19.1-43
				l5.8,37.6c0.8,5.4,0.2,8.8,0.2,8.8h7C315.8,102.1,314,98.7,313.1,93.3L313.1,93.3z"/>
			<path id="path121633" class="st1" d="M330.8,98.7V73.8c0,0,9.7-0.2,19.9,0.6l1-3.7c0,0-13.7,0.6-20.9,0.4V49.6
				c9.2-2,26.7,0,26.7,0l1-3.4H325c0,0,1.2,3.3,1.2,8.8v38.4c0,5.4-1.2,8.8-1.2,8.8h33.8l1.1-4.2C359.9,97.9,340,100.7,330.8,98.7
				L330.8,98.7z"/>
			<path id="path121635" class="st1" d="M415.9,46.1h-5.8c0,0,1.2,3.4,1.2,8.8v39.5l-38.8-48.3h-4.5c0,0,1.2,3.4,1.2,8.8v38.4
				c0,5.4-1.2,8.8-1.2,8.8h5.8c0,0-1.3-3.4-1.3-8.8V51.9l38.8,48.2l1.7,2h1.6V54.9C414.6,49.5,415.9,46.1,415.9,46.1L415.9,46.1z"/>
			<path id="path121637" class="st1" d="M466,49.6l1-3.4h-44.5l1,3.4c0,0,9.8-2,19,0v43.7c0,5.5-1.3,8.8-1.3,8.8h7
				c0,0-1.2-3.4-1.2-8.8V49.6C456.2,47.6,466,49.6,466,49.6z"/>
			<path id="path121639" class="st1" d="M508.7,93.3l-19.2-45.2l-0.8-1.9h-1.6l-1.5,3.4l-19.4,43.7c-2.4,5.4-5.2,8.8-5.2,8.8h6.6
				c0,0-0.6-3.4,1.8-8.8l5-11.3h24.8l4.8,11.3c2.3,5.4,1.7,8.8,1.7,8.8h7.8C513.6,102.1,511,98.7,508.7,93.3z M475.7,79.2l11.5-25.9
				l10.9,25.9H475.7z"/>
		</g>
		
			<image style="overflow:visible;enable-background:new    ;" width="200" height="200" id="icon" xlink:href="E8FD0421.png"  transform="matrix(0.75 0 0 0.75 -177.5503 -1)">
		</image>
	</g>
</g>
</svg>
