<?xml version="1.0" encoding="UTF-8"?>
<svg id="svg121614" xmlns="http://www.w3.org/2000/svg" viewBox="0 0 502.66 56.82">
  <defs>
    <style>
      .cls-1 {
        stroke-width: 0px;
      }
    </style>
  </defs>
  <g id="logo-group">
    <g id="logo-center">
      <g id="title">
        <path id="path121623" class="cls-1" d="m21.98.56H0s1.2,3.36,1.2,8.79v38.36c0,5.43-1.2,8.79-1.2,8.79h20.38c12.23,0,28.77-8.79,28.77-30.13C49.15,11.82,40.76.56,21.98.56h0ZM5.76,53.07V4s7.51-1.28,12.15-1.28c18.86,0,26.53,9.75,26.53,24.86,0,12.55-6.87,26.77-27.81,26.77-6.63,0-10.87-1.28-10.87-1.28h0Zm9.35-24.62s3.44,1.12,5.83,3.28c2.32,2.16,3.6,5.27,3.6,5.27,0,0,1.28-3.12,3.68-5.27,2.32-2.16,5.75-3.36,5.75-3.36,0,0-3.44-1.12-5.75-3.28-2.4-2.16-3.68-5.27-3.68-5.27,0,0-1.28,3.12-3.6,5.27-2.4,2.16-5.83,3.36-5.83,3.36Z"/>
        <path id="path121625" class="cls-1" d="m86.02.16c-17.26,0-28.21,12.63-28.21,28.29s10.39,28.37,28.21,28.37c15.66,0,28.21-12.71,28.21-28.37S104.72.16,86.02.16h0Zm-23.42,28.29c0-15.5,7.03-25.73,23.42-25.73,14.71,0,23.42,11.51,23.42,25.73s-7.75,25.81-23.42,25.81c-14.31,0-23.42-11.59-23.42-25.81Z"/>
        <path id="path121627" class="cls-1" d="m156.7,54.1c-18.54,0-29.09-11.43-29.09-25.65,0-15.82,8.15-25.73,26.29-25.73,3.04,0,9.83.24,17.9,3.76l1.2-3.6c-10.31-2.8-14.63-2.88-20.38-2.88-18.38,0-29.81,12.79-29.81,28.45s9.67,28.37,32.93,28.37c11.51,0,20.78-4.64,20.78-4.64l-1.44-3.28c-3.76,2.96-12.39,5.19-18.38,5.19h0Z"/>
        <path id="path121629" class="cls-1" d="m229.96.56h-5.83s1.28,3.36,1.28,8.79v23.82c0,7.91-2.32,20.54-18.46,20.54s-19.58-11.83-19.58-20.54V9.35c0-5.51,1.28-8.79,1.28-8.79h-7.03s1.2,3.36,1.2,8.79v18.54c0,7.35-1.28,28.93,22.46,28.93,19.9,0,23.42-13.19,23.42-28.93V9.35c0-5.51,1.28-8.79,1.28-8.79h-.02Z"/>
        <path id="path121631" class="cls-1" d="m302.2,47.71l-6.95-45.31-.4-1.84h-2.08l-1.76,4-19.98,44.92-21.26-45.47-1.6-3.44h-3.52s2.16,2.24.96,8.79l-6.63,38.36c-.96,5.43-2.88,8.79-2.88,8.79h5.83s-.72-3.28.24-8.79l6.39-36.6,20.3,43.32.96,2.08h1.28l1.6-3.44,19.1-43,5.83,37.64c.8,5.43.16,8.79.16,8.79h7.03s-1.76-3.36-2.64-8.79h.02Z"/>
        <path id="path121633" class="cls-1" d="m319.81,53.07v-24.86s9.67-.24,19.9.56l1.04-3.68s-13.67.64-20.94.4V3.99c9.19-2,26.69,0,26.69,0l.96-3.44h-33.41s1.2,3.28,1.2,8.79v38.36c0,5.43-1.2,8.79-1.2,8.79h33.81l1.12-4.16s-19.98,2.72-29.17.72h0v.02h0Z"/>
        <path id="path121635" class="cls-1" d="m404.93.56h-5.75s1.2,3.36,1.2,8.79v39.48L361.62.56h-4.48s1.2,3.36,1.2,8.79v38.36c0,5.43-1.2,8.79-1.2,8.79h5.75s-1.28-3.36-1.28-8.79V6.31l38.76,48.19,1.68,2h1.6V9.35c0-5.43,1.28-8.79,1.28-8.79h0Z"/>
        <path id="path121637" class="cls-1" d="m455.05,3.99l1.04-3.44h-44.52l.96,3.44s9.75-2,19.02,0v43.72c0,5.51-1.28,8.79-1.28,8.79h7.03s-1.2-3.36-1.2-8.79V3.99c9.11-2,18.94,0,18.94,0h.01Z"/>
        <path id="path121639" class="cls-1" d="m497.78,47.71l-19.18-45.23-.8-1.92h-1.6l-1.52,3.44-19.42,43.72c-2.4,5.43-5.19,8.79-5.19,8.79h6.63s-.64-3.36,1.84-8.79l5.03-11.27h24.78l4.8,11.27c2.32,5.43,1.68,8.79,1.68,8.79h7.83s-2.64-3.36-4.88-8.79h0Zm-33.01-14.07l11.51-25.89,10.95,25.89h-22.46Z"/>
      </g>
    </g>
  </g>
</svg>